<svg width="64" height="81" viewBox="0 0 64 81" fill="none" xmlns="http://www.w3.org/2000/svg">
<path d="M43.0878 36.5038C41.7879 36.5038 40.588 37.0038 36.8882 39.6036V53.7027C43.2878 46.6032 45.0877 41.7035 45.0877 39.2037C45.0877 37.5038 44.2878 36.5038 43.0878 36.5038Z" fill="black"/>
<path d="M43.5882 27.1048C43.5882 24.6048 40.6882 22.5048 36.8882 22.3048V35.3048C41.7882 32.5048 43.5882 29.7048 43.5882 27.1048Z" fill="black"/>
<path d="M54.8882 21.6048C54.7882 21.4049 54.7882 21.3049 54.6882 21.2049L50.1882 20.005L49.5882 17.4051C49.5882 17.3051 49.4882 17.2051 49.3882 17.2051L44.7882 16.0052L44.1882 13.5054C44.1882 13.3054 44.0882 13.2054 43.9882 13.2054L31.9882 11.0056C31.7882 11.0056 31.5882 11.0056 31.3882 11.0056L19.3882 13.2054C19.2882 13.2054 19.1882 13.3054 19.1882 13.5054L18.5882 15.9052L13.9882 17.1051C13.8882 17.1051 13.7882 17.2051 13.7882 17.3051L13.1882 19.905L8.68824 21.1049C8.58824 21.1049 8.48825 21.2049 8.48825 21.5049C8.08825 23.4047 7.88824 25.5046 7.88824 27.6044C7.88824 45.6032 17.2882 61.2022 31.1882 70.5016C31.3882 70.6016 31.5882 70.7016 31.6882 70.7016C31.7882 70.7016 31.9882 70.6016 32.1882 70.5016C46.1882 61.2022 55.4882 45.6032 55.4882 27.6044C55.4882 25.6046 55.2882 23.5047 54.8882 21.6048ZM29.8882 62.2021C29.8882 62.3021 29.7882 62.4021 29.6882 62.3021C26.2882 58.4024 23.9882 53.6027 22.3882 48.3031L19.9882 49.803C19.3882 50.2029 18.8882 50.0029 18.4882 49.403C15.2882 43.8034 13.2882 34.604 13.0882 28.1044C13.0882 27.8044 13.1882 27.6044 13.3882 27.3045C14.1882 26.3045 15.1882 25.3046 16.0882 24.4047C16.2882 24.2047 16.4882 24.3047 16.4882 24.6046C16.4882 32.6041 17.8882 40.0036 20.0882 44.9033C20.2882 45.3033 20.4882 45.3033 20.6882 45.1033L21.3882 44.7033C20.0882 38.9037 19.2882 31.2042 19.4882 22.2048C19.4882 21.9048 19.5882 21.8048 19.6882 21.6048C20.3882 21.2049 21.5882 20.5049 22.6882 20.005C22.9882 19.905 23.0882 19.905 23.0882 20.2049C22.8882 33.2041 23.9882 42.2035 26.2882 49.303C26.3882 49.503 26.4882 49.403 26.4882 49.203C26.3882 46.6032 26.3882 44.3033 26.3882 41.5035L26.2882 19.105C26.2882 18.905 26.3882 18.705 26.5882 18.705C27.6882 18.5051 28.5882 18.3051 29.6882 18.1051C29.7882 18.1051 29.8882 18.2051 29.8882 18.3051V62.2021ZM33.6882 62.3021C33.5882 62.4021 33.4882 62.4021 33.4882 62.2021V18.4051C33.4882 18.3051 33.5882 18.2051 33.6882 18.2051C42.0882 18.805 47.3882 22.3048 47.3882 27.3045C47.3882 29.4043 46.5882 31.5042 45.1882 33.0041C47.8882 33.704 48.9882 35.8039 48.9882 38.6037C48.8882 43.4034 45.3882 51.4029 33.6882 62.3021Z" fill="black"/>
</svg>
