<svg width="86" height="81" viewBox="0 0 86 81" fill="none" xmlns="http://www.w3.org/2000/svg">
<path d="M63.6711 32.3042C63.4711 32.3042 63.2711 32.4042 63.0711 32.6042L62.4711 33.1042C62.2711 33.4042 61.9711 33.8042 61.7711 34.3042C61.3711 34.9042 61.2711 35.5042 61.2711 36.2042C61.2711 36.6042 61.3711 36.9042 61.4711 37.1042C61.4711 37.1042 61.4711 37.1042 61.5711 37.1042C61.6711 37.1042 61.8711 37.1042 62.0711 37.0042C62.3711 36.9042 62.5711 36.6042 62.9711 36.2042C63.4711 35.6042 63.7711 34.9042 63.9711 34.1042C64.0711 33.6042 64.1711 33.2042 64.0711 32.9042C64.0711 32.5042 63.9711 32.3042 63.6711 32.3042Z" fill="black"/>
<path d="M64.9707 37.7038C67.6704 35.404 67.1705 33.1042 67.1705 33.1042C66.7705 30.4044 64.2708 31.0043 64.2708 31.0043C63.8709 27.0046 62.571 14.1055 62.571 13.2056C62.471 12.3057 61.6711 12.7056 61.6711 12.7056C39.9737 20.3051 17.4763 22.6049 17.4763 22.6049C16.3764 22.7049 16.8764 23.5049 16.8764 23.6048C18.6762 27.6046 20.076 36.1039 20.076 36.1039C16.9764 36.9039 15.9765 38.2038 15.9765 38.2038C14.5767 40.1036 17.0764 40.6036 17.0764 40.6036C18.5762 40.9036 20.6759 40.1036 20.6759 40.1036C24.1755 61.1021 23.0757 67.0017 23.0757 67.0017C22.9757 68.1016 23.7756 67.7016 23.7756 67.7016C46.073 59.6022 68.1704 57.7024 68.1704 57.7024C68.9703 57.6024 68.6703 56.7024 68.6703 56.7024C66.2706 48.703 64.9707 37.7038 64.9707 37.7038ZM44.6731 28.5045C45.1731 28.3045 45.873 28.0045 46.8729 27.9045C47.5728 27.8045 47.9727 28.0045 48.1727 28.5045C48.1727 28.6045 48.1727 28.6045 48.1727 28.7045C48.1727 28.8045 48.1727 29.0045 48.1727 29.1044L48.3727 29.9044C48.4727 30.4044 48.6726 31.6043 48.8726 33.6041L48.9726 33.7041C49.0726 33.6041 49.1726 33.5041 49.2726 33.4041C49.5725 33.2041 49.9725 33.0042 50.3724 32.9042C51.1723 32.6042 51.8723 32.6042 52.4722 32.8042C52.8722 33.0042 53.1721 33.2041 53.3721 33.6041C53.4721 33.9041 53.4721 34.2041 53.3721 34.604C53.1721 35.404 52.6722 36.2039 51.8723 37.1039C51.0724 38.0038 50.2725 38.7037 49.4726 39.2037C48.5727 39.7037 48.0727 39.9037 47.5728 39.8037C47.4728 39.8037 47.4728 39.8037 47.3728 39.7037C47.1728 39.6037 47.0728 39.3037 47.0728 38.9037C46.9728 35.304 46.4729 32.3042 45.573 29.8044C45.473 29.6044 45.473 29.5044 45.373 29.4044C45.373 29.3044 45.273 29.2044 45.1731 29.1044C45.0731 28.9045 44.8731 28.8045 44.6731 28.7045C44.5731 28.6045 44.5731 28.6045 44.6731 28.5045ZM41.8734 33.8041C42.8733 32.9042 43.8732 32.4042 44.6731 32.2042C45.373 32.0042 45.873 32.3042 46.073 32.9042C46.073 33.0042 46.1729 33.1042 46.1729 33.3041V33.6041H45.973C45.373 33.7041 44.8731 33.8041 44.4731 34.0041C43.0733 34.604 42.3734 35.104 42.2734 35.804C42.2734 36.0039 42.2734 36.2039 42.2734 36.4039C42.3734 36.6039 42.4734 36.7039 42.6733 36.8039L42.7733 36.9039C43.0733 37.0039 43.8732 37.2039 45.1731 37.5038C45.973 37.7038 46.3729 38.0038 46.4729 38.4038V38.5038C46.7729 39.4037 46.3729 40.4036 45.273 41.6035C44.4731 42.5035 43.8732 43.1034 43.1733 43.4034C42.6733 43.7034 42.1734 43.9034 41.4735 44.1034C40.6736 44.3033 40.1736 43.9034 39.4737 43.1034L39.3737 43.0034L39.1738 42.7035C39.0738 42.5035 39.0738 42.3035 39.0738 42.3035C39.0738 42.2035 39.1738 42.2035 39.2738 42.2035H39.4737C39.5737 42.3035 39.5737 42.3035 39.7737 42.3035C40.3736 42.5035 40.9735 42.5035 41.5735 42.1035C42.1734 41.7035 42.6733 41.2036 43.1733 40.7036L43.7732 39.9037L44.0732 39.4037C44.0732 39.2037 44.1732 39.1037 44.1732 38.9037C44.1732 38.8037 44.1732 38.7037 44.0732 38.6038C43.8732 38.3038 43.3733 38.1038 42.6733 38.0038H42.7733C42.3734 37.9038 41.8734 37.8038 41.2735 37.7038C41.0735 37.7038 40.8736 37.6038 40.6736 37.5038C40.5736 37.4038 40.4736 37.3038 40.3736 37.1039C39.9737 36.0039 40.4736 34.904 41.8734 33.8041ZM30.2748 42.5035C30.0748 42.5035 29.9748 42.5035 29.7749 42.4035C29.6749 42.3035 29.5749 42.1035 29.4749 41.9035L29.1749 40.6036L28.675 37.5038L28.575 36.7039L25.6753 37.4038L26.4753 42.6035V42.9034C26.4753 43.2034 25.9753 43.4034 24.8754 43.5034L24.0755 43.6034L23.8756 43.5034L23.7756 43.4034C23.6756 43.3034 23.4756 43.0034 23.3756 42.3035L22.8757 38.9037L22.7757 38.2038L20.176 38.9037C18.8761 39.3037 17.7763 39.5037 17.0764 39.4037C17.0764 39.4037 16.8764 39.4037 16.6764 39.4037C16.4764 39.3037 16.3764 39.2037 16.4764 38.9037C16.3764 38.3038 17.0764 37.9038 17.0764 37.9038C18.2762 37.1039 20.076 36.5039 22.5757 35.804H22.6757C22.5757 34.604 22.2757 33.4041 22.0758 32.0042C22.0758 31.9042 22.0758 31.8042 21.9758 31.7043C21.8758 31.4043 21.7758 31.3043 21.6758 31.2043C21.5758 31.1043 21.5758 31.1043 21.4758 31.1043H21.3759L21.2759 31.0043C21.1759 30.9043 21.2759 30.8043 21.3759 30.7043C21.8758 30.3044 22.4757 30.0044 23.1756 29.7044C23.7756 29.5044 24.2755 29.4044 24.5755 29.4044C24.8754 29.4044 25.0754 29.6044 25.0754 30.1044V30.2044L25.2754 32.7042C25.3754 33.8041 25.4754 35.004 25.6753 36.3039L25.8753 36.2039L28.575 35.504L28.1751 31.0043C28.1751 30.7043 28.1751 30.5043 28.1751 30.3044C28.1751 30.2044 28.1751 30.2044 28.1751 30.1044C28.1751 29.9044 28.0751 29.8044 28.0751 29.7044L27.9751 29.5044L27.8751 29.4044C27.7751 29.3044 27.8751 29.3044 27.9751 29.2044C28.475 28.9045 29.1749 28.7045 29.8749 28.6045C30.1748 28.5045 30.4748 28.6045 30.5748 28.7045C30.7747 28.8045 30.7747 29.0045 30.7747 29.2044C30.7747 29.3044 30.7747 29.3044 30.7747 29.4044C30.6748 30.1044 30.6748 31.2043 30.6748 32.8042L30.7747 35.004C30.8747 35.004 30.9747 35.004 31.1747 34.904C33.6744 34.4041 35.7742 34.2041 37.274 34.1041H38.2739C38.3739 34.1041 38.4738 34.2041 38.4738 34.3041C38.4738 34.4041 38.4738 34.5041 38.3739 34.5041C38.0739 34.604 37.7739 34.704 37.5739 34.904C37.474 35.004 37.374 35.004 37.274 35.104C36.0741 36.0039 35.2742 37.0039 34.7743 38.2038C34.5743 38.8037 34.4743 39.2037 34.4743 39.6037C34.5743 39.9037 34.6743 40.0037 34.9743 39.9037C35.0742 39.8037 35.2742 39.7037 35.4742 39.5037C36.2741 38.7037 36.974 37.6038 37.374 36.2039C37.374 36.2039 37.374 36.2039 37.374 36.1039C37.474 35.804 37.5739 35.604 37.6739 35.504C37.7739 35.404 37.9739 35.304 38.2739 35.104C38.3739 35.004 38.5738 35.004 38.6738 34.904C38.8738 34.804 38.9738 34.804 39.1738 34.704C39.5737 34.604 39.7737 34.704 39.7737 35.104L39.6737 35.504L39.5737 36.3039C39.3737 37.2039 39.3737 37.9038 39.3737 38.4038C39.3737 39.0037 39.5737 39.5037 39.8737 39.8037C39.9737 39.9037 40.0737 40.0037 40.1736 40.0037C40.2736 40.1036 40.2736 40.1036 40.2736 40.2036C40.2736 40.3036 40.2736 40.3036 40.1736 40.3036H40.0737C38.6738 40.7036 37.7739 40.2036 37.274 39.0037C36.774 39.7037 36.1741 40.2036 35.5742 40.5036C35.4742 40.6036 35.3742 40.6036 35.2742 40.7036H35.1742C34.9743 40.8036 34.7743 40.8036 34.5743 40.9036C34.1743 41.0036 33.7744 41.0036 33.3744 40.8036C33.1745 40.7036 33.0745 40.6036 32.8745 40.4036C32.7745 40.3036 32.6745 40.1036 32.5745 39.9037C32.1746 39.0037 32.4745 38.0038 33.3744 36.8039C33.5744 36.5039 33.8744 36.2039 34.1743 35.804L30.8747 36.3039C31.1747 38.4038 31.4747 40.1036 31.9746 41.5035L32.0746 41.8035C32.0746 41.9035 32.0746 42.0035 31.9746 42.1035C31.5747 42.3035 31.0747 42.4035 30.2748 42.5035ZM53.6721 48.1031C53.1721 50.1029 52.1722 51.6028 50.7724 52.8027C49.3726 53.9026 47.7727 54.6026 45.873 54.9026C44.0732 55.1026 42.1734 55.0026 40.2736 54.5026C36.774 53.5027 34.3743 52.0028 33.0745 50.0029C32.3746 49.003 32.0746 47.8031 31.9746 46.6032C31.8746 46.5032 31.8746 46.4032 31.9746 46.4032H32.0746C35.0742 47.4031 38.4738 47.4031 42.2734 46.4032C44.6731 45.7032 46.7729 44.7033 48.5727 43.5034C49.9725 42.5035 51.1723 41.3036 52.3722 39.8037L52.7722 39.5037C52.7722 39.4037 52.8722 39.4037 52.9721 39.4037C53.0721 39.4037 53.0721 39.5037 52.9721 39.7037C52.6722 40.4036 52.0722 41.1036 51.3723 42.0035C50.9724 42.4035 50.5724 42.9034 50.1725 43.3034C48.4727 44.9033 46.4729 46.1032 44.3731 47.0031C42.4734 47.8031 40.3736 48.2031 38.0739 48.403C36.874 48.503 35.7742 48.503 34.8743 48.403C34.9743 48.703 35.0742 49.003 35.3742 49.403C35.7742 50.1029 36.4741 50.7029 37.374 51.3028C38.4738 52.1028 39.6737 52.7027 41.0735 53.1027C43.5732 53.8026 46.073 53.7027 48.4727 52.7027C50.9724 51.7028 52.5722 49.8029 53.1721 46.9031C53.3721 45.8032 53.4721 44.6033 53.4721 43.4034C53.3721 42.5035 53.2721 41.7035 53.1721 40.9036C53.1721 40.8036 53.1721 40.7036 53.0721 40.6036C53.0721 40.4036 53.0721 40.3036 53.2721 40.3036C53.2721 40.3036 53.3721 40.3036 53.3721 40.4036V40.5036L53.4721 40.7036C53.4721 40.8036 53.4721 40.9036 53.5721 41.0036C54.172 43.7034 54.172 46.1032 53.6721 48.1031ZM57.2716 37.7038V38.1038C57.2716 38.4038 56.9717 38.6038 56.3717 38.7037L54.8719 38.9037C54.8719 38.9037 54.8719 38.9037 54.7719 38.9037C54.372 38.9037 54.272 38.7037 54.472 38.2038C54.8719 36.7039 55.0719 35.504 55.0719 34.4041C55.0719 34.3041 55.0719 34.2041 55.0719 34.1041C55.0719 33.8041 54.8719 33.6041 54.572 33.4041C54.572 33.4041 54.472 33.4041 54.472 33.3041C54.372 33.3041 54.172 33.2041 53.872 33.2041C53.772 33.2041 53.6721 33.1042 53.772 33.0042C53.772 32.9042 53.972 32.8042 54.172 32.7042C54.472 32.5042 54.7719 32.4042 54.9719 32.4042C55.7718 32.4042 56.2717 32.6042 56.6717 33.3041C57.7716 31.8042 58.8714 31.0043 60.0713 31.0043C60.6712 31.0043 60.9712 31.2043 60.9712 31.6043V31.7043C60.9712 32.0042 60.9712 32.2042 60.7712 32.4042C60.5712 32.7042 60.3713 32.9042 60.1713 33.0042C60.1713 33.0042 60.0713 33.0042 59.9713 32.9042C59.6714 32.6042 59.3714 32.5042 59.0714 32.6042C58.2715 32.8042 57.5716 33.4041 57.0717 34.4041V34.5041C57.1716 35.404 57.2716 36.4039 57.2716 37.7038ZM61.0712 38.0038C60.3713 38.1038 59.8713 38.0038 59.4714 37.8038C59.1714 37.6038 58.9714 37.2039 58.9714 36.7039C58.8714 36.4039 58.9714 35.904 59.0714 35.504C59.1714 35.004 59.3714 34.704 59.5714 34.4041C59.7713 34.0041 59.9713 33.7041 60.2713 33.4041C60.5712 33.0042 60.9712 32.6042 61.3712 32.3042C62.0711 31.8042 62.871 31.4043 63.7709 31.2043C64.5708 31.0043 65.2707 31.1043 65.6706 31.4043C65.6706 31.4043 66.0706 31.6043 66.2706 32.2042C66.2706 32.3042 66.3706 32.3042 66.3706 32.4042C66.5705 33.3041 66.0706 34.4041 66.0706 34.4041L65.8706 34.804C64.6708 36.7039 63.071 37.8038 61.0712 38.0038Z" fill="black"/>
<path d="M18.8767 36.2049C16.7767 27.1049 14.5767 22.8049 14.5767 22.8049C12.5767 23.2049 13.4767 24.0049 13.4767 24.0049C15.9767 27.9049 18.4767 36.3049 18.4767 36.3049L18.8767 36.2049Z" fill="black"/>
<path d="M62.1709 9.60586C62.071 8.80592 61.271 9.20589 61.271 9.20589C48.5725 14.8055 39.1736 17.4053 39.1736 17.4053C56.4716 13.1056 62.3709 10.5058 62.2709 10.5058L62.1709 9.60586Z" fill="black"/>
<path d="M22.6756 69.5015V70.5014C22.5757 71.5014 23.3756 71.1014 23.3756 71.1014C32.3745 66.6017 45.6729 62.402 45.6729 62.402C30.7747 66.3018 22.7756 69.5015 22.6756 69.5015Z" fill="black"/>
<path d="M71.4701 56.5025C71.4701 56.5025 67.8704 48.703 65.5706 38.6038C65.5706 38.6038 67.3704 49.103 70.4702 57.8024L71.1701 57.6024C71.1701 57.6024 71.9701 57.4024 71.4701 56.5025Z" fill="black"/>
<path d="M49.7725 38.0041C50.1725 37.6041 50.5725 37.1041 50.7725 36.4041C50.9725 35.8041 51.0725 35.3041 50.9725 34.8041C50.9725 34.7041 50.8725 34.6041 50.8725 34.5041C50.5725 34.0041 49.9725 34.0041 49.0725 34.7041L49.4725 38.2041C49.5725 38.1041 49.6725 38.0041 49.7725 38.0041Z" fill="black"/>
<path d="M22.4763 36.4039V36.1039C21.0763 36.4039 19.8763 36.9039 18.8763 37.4039C18.5763 37.6039 18.3763 37.7039 18.3763 37.8039C18.3763 38.0039 18.5763 38.0039 18.9763 37.9039C19.1763 37.9039 19.3763 37.9039 19.6763 37.8039C20.2763 37.7039 21.2763 37.4039 22.5763 37.1039V36.8039L22.4763 36.4039Z" fill="black"/>
</svg>
