<svg width="55" height="81" viewBox="0 0 55 81" fill="none" xmlns="http://www.w3.org/2000/svg">
<path d="M41.7207 66.1007C41.5207 66.1007 41.2207 66.1007 40.8208 66.0007C38.5212 65.7007 35.4218 65.5008 32.9223 65.3008C32.1224 65.3008 31.4225 65.2008 31.4225 65.2008C31.4225 65.2008 29.023 58.5016 24.5238 46.003L23.8239 44.0032V44.1032V50.0025V54.502C23.8239 64.7009 23.8239 65.3008 23.7239 65.3008C23.324 65.3008 19.9246 65.5008 18.8248 65.6008C18.125 65.7007 16.6253 65.8007 15.5255 65.9007C14.4257 66.0007 13.5258 66.1007 13.5258 66.1007C13.5258 66.1007 13.5258 54.602 13.5258 40.7036V15.3065H18.6249H23.7239L23.8239 15.5064C23.8239 15.6064 24.7238 17.9062 25.7236 20.7058C29.4229 31.0047 30.0228 32.7045 30.9226 35.2042L31.6225 37.304V15.3065H41.9206V40.7036C41.8206 54.0021 41.8206 65.0008 41.7207 66.1007C41.8206 66.2007 41.8206 66.1007 41.7207 66.1007Z" fill="black"/>
</svg>
