<svg width="101" height="84" viewBox="0 0 101 84" fill="none" xmlns="http://www.w3.org/2000/svg">
<path d="M43.5282 48.8036C43.5282 48.9036 43.5282 49.1036 43.5282 49.2036C43.4282 50.5036 43.4282 51.8036 43.3282 53.1036C43.2282 54.2036 43.1282 55.2036 43.0282 56.3036C43.0282 56.6036 42.9282 57.0036 42.9282 57.4036C40.4282 56.4036 38.0282 55.2036 35.8282 53.7036C34.1282 52.5036 32.5282 51.1036 31.2282 49.5036C30.5282 48.7036 30.8282 48.0036 31.6282 47.6036C32.7282 47.1036 34.0282 46.8036 35.2282 46.5036C36.4282 46.2036 37.7282 46.0036 39.0282 45.9036C39.8282 45.8036 40.6282 45.8036 41.4282 45.7036C42.2282 45.6036 42.9282 45.6036 43.7282 45.5036C43.6282 46.6036 43.5282 47.7036 43.5282 48.8036ZM81.6282 47.7036C81.6282 47.0036 81.4282 46.2036 81.3282 45.5036C80.8282 43.5036 80.0282 41.6036 78.9282 39.8036C77.7282 37.8036 76.3282 36.0036 74.8282 34.3036C74.0282 33.4036 73.1282 32.6036 72.3282 31.8036C72.1282 31.6036 71.8282 31.3036 71.5282 31.1036C70.3282 30.2036 69.2282 29.2036 68.0282 28.4036C65.9282 27.0036 63.8282 25.6036 61.5282 24.3036C59.4282 23.1036 57.2282 22.1036 55.0282 21.2036C52.8282 20.3036 50.4282 19.5036 48.1282 18.8036C46.6282 18.3036 45.1282 18.0036 43.5282 17.7036C42.3282 17.4036 41.0282 17.2036 39.8282 17.1036C38.4282 16.9036 37.0282 16.8036 35.7282 16.7036C34.2282 16.7036 32.7282 16.7036 31.2282 16.8036C30.8282 16.8036 30.4282 16.8036 30.0282 16.9036C29.5282 16.9036 29.0282 17.0036 28.5282 17.1036C27.0282 17.4036 25.4282 17.8036 23.9282 18.2036C23.4282 18.3036 22.0282 18.8036 21.3282 20.1036C21.1282 20.4036 20.9282 20.9036 20.8282 21.5036C20.6282 22.6036 21.4282 23.6036 22.4282 23.8036C23.3282 23.9036 24.2282 23.9036 25.1282 24.0036C25.4282 24.0036 25.8282 24.0036 26.0282 23.8036C26.2282 23.7036 26.5282 23.4036 26.5282 23.2036C26.5282 23.1036 26.3282 22.8036 26.1282 22.7036C25.6282 22.4036 25.0282 22.3036 24.5282 22.1036C24.3282 22.0036 24.2282 22.0036 24.0282 22.0036C23.9282 22.0036 23.9282 21.9036 23.9282 21.8036C23.9282 21.7036 23.9282 21.7036 24.0282 21.6036C24.2282 21.5036 24.3282 21.4036 24.5282 21.4036C25.7282 21.2036 27.0282 20.9036 28.2282 20.8036C28.5282 20.8036 28.8282 20.7036 29.1282 20.7036C31.4282 20.6036 33.7282 20.6036 36.0282 20.9036C37.3282 21.1036 38.6282 21.2036 39.9282 21.5036C42.3282 22.0036 44.6282 22.6036 46.9282 23.3036C48.7282 23.8036 50.5282 24.5036 52.2282 25.3036C54.7282 26.4036 57.1282 27.6036 59.4282 28.9036C61.4282 30.1036 63.4282 31.4036 65.3282 32.8036C66.7282 33.8036 68.0282 34.9036 69.2282 36.1036C70.0282 36.9036 70.8282 37.8036 71.5282 38.6036C72.9282 40.2036 74.0282 41.9036 74.7282 43.8036C75.5282 45.8036 75.8282 47.9036 75.4282 50.1036C74.9282 52.4036 73.7282 54.3036 71.9282 55.7036C70.5282 56.8036 68.9282 57.7036 67.1282 58.2036C65.6282 58.7036 64.1282 59.0036 62.5282 59.4036C61.2282 59.7036 60.0282 59.9036 58.7282 59.9036C57.1282 60.0036 55.5282 59.9036 54.0282 59.7036C52.4282 59.6036 50.9282 59.2036 49.3282 59.0036C48.9282 59.0036 48.9282 58.8036 48.9282 58.5036C48.9282 56.5036 49.0282 54.5036 49.0282 52.5036C49.0282 50.2036 49.1282 47.9036 49.1282 45.5036C49.1282 45.4036 49.1282 45.3036 49.1282 45.2036C49.9282 45.3036 50.7282 45.3036 51.4282 45.4036C52.5282 45.5036 53.5282 45.5036 54.6282 45.7036C56.2282 45.9036 57.8282 46.2036 59.4282 46.6036C60.6282 46.9036 61.7282 47.2036 62.7282 47.9036C63.5282 48.5036 63.3282 49.0036 62.7282 49.5036C62.5282 49.7036 62.2282 49.8036 61.9282 49.9036C61.4282 50.1036 60.9282 50.3036 60.5282 50.6036C60.0282 50.9036 59.9282 51.3036 60.5282 51.6036C62.0282 52.4036 63.5282 52.8036 65.2282 51.9036C67.9282 50.3036 68.6282 46.9036 66.3282 44.6036C65.1282 43.4036 63.6282 42.6036 62.0282 42.0036C60.3282 41.4036 58.5282 41.1036 56.8282 40.7036C54.5282 40.3036 52.2282 40.0036 49.9282 40.0036C49.8282 40.0036 49.6282 40.0036 49.5282 40.0036C49.5282 39.3036 49.4282 38.6036 49.4282 37.9036C49.4282 37.2036 49.4282 36.5036 49.3282 35.8036C49.2282 34.8036 49.1282 33.9036 48.9282 32.9036C48.7282 31.7036 48.0282 30.9036 47.3282 30.0036C46.8282 29.4036 46.1282 29.3036 45.7282 30.2036C45.6282 30.4036 45.5282 30.6036 45.4282 30.9036C45.1282 32.2036 44.8282 33.5036 44.5282 34.8036C44.3282 36.0036 44.2282 37.3036 44.0282 38.6036C43.9282 39.1036 43.9282 39.6036 43.8282 40.1036C43.8282 40.2036 43.6282 40.4036 43.5282 40.4036C42.5282 40.6036 41.5282 40.7036 40.5282 40.9036C37.7282 41.5036 35.0282 42.3036 32.4282 43.7036C31.4282 44.2036 30.4282 44.9036 29.7282 45.8036C28.9282 47.0036 28.7282 48.2036 29.3282 49.5036C30.0282 50.9036 31.1282 52.1036 32.2282 53.3036C32.9282 54.0036 33.6282 54.7036 34.3282 55.3036C35.4282 56.2036 36.5282 57.2036 37.7282 58.0036C39.3282 59.0036 40.9282 59.9036 42.5282 60.9036C42.6282 61.0036 42.8282 61.2036 42.8282 61.3036C42.9282 62.2036 43.0282 63.1036 43.2282 63.9036C43.3282 64.6036 43.6282 65.4036 44.2282 65.9036C45.0282 66.6036 46.0282 66.6036 46.9282 66.2036C47.5282 66.0036 48.1282 65.8036 48.3282 65.1036C48.4282 64.6036 48.5282 64.2036 48.5282 63.7036C48.5282 63.3036 48.6282 63.2036 49.0282 63.3036C51.3282 64.0036 53.8282 64.3036 56.2282 64.5036C57.5282 64.6036 58.7282 64.5036 60.0282 64.5036C61.9282 64.5036 63.7282 64.2036 65.5282 63.9036C67.8282 63.4036 70.1282 62.7036 72.2282 61.7036C73.7282 61.0036 75.1282 60.1036 76.4282 59.0036C77.6282 57.9036 78.7282 56.7036 79.5282 55.3036C81.0282 53.2036 81.8282 50.5036 81.6282 47.7036Z" fill="black"/>
</svg>
