<svg width="81" height="81" viewBox="0 0 81 81" fill="none" xmlns="http://www.w3.org/2000/svg">
<path d="M63.9282 52.3036C63.6282 51.7036 63.4282 51.0036 63.1282 50.5036C62.7282 49.6036 62.3282 48.7036 61.9282 47.9036L61.8282 47.8036C58.3282 40.3036 54.6282 32.7036 50.6282 25.2036V25.0036C50.2282 24.2036 49.8282 23.4036 49.4282 22.6036C48.9282 21.7036 48.4282 20.7036 47.6282 19.8036C46.0282 17.8036 43.7282 16.7036 41.2282 16.7036C38.7282 16.7036 36.4282 17.8036 34.7282 19.7036C33.9282 20.6036 33.4282 21.6036 32.9282 22.5036C32.5282 23.3036 32.1282 24.1036 31.7282 24.9036L31.5282 25.2036C27.6282 32.7036 23.8282 40.3036 20.3282 47.8036L20.2282 47.9036C19.8282 48.7036 19.4282 49.6036 19.0282 50.5036C18.7282 51.0036 18.5282 51.7036 18.2282 52.3036C17.5282 54.2036 17.3282 55.9036 17.6282 57.7036C18.2282 61.5036 20.7282 64.6036 24.2282 66.0036C25.5282 66.6036 26.9282 66.8036 28.3282 66.8036C28.7282 66.8036 29.2282 66.7036 29.6282 66.7036C31.3282 66.5036 33.0282 65.9036 34.7282 65.0036C36.8282 63.8036 38.7282 62.2036 41.0282 59.8036C43.2282 62.2036 45.3282 63.9036 47.3282 65.0036C49.0282 66.0036 50.7282 66.5036 52.4282 66.7036C52.8282 66.7036 53.3282 66.8036 53.7282 66.8036C55.1282 66.8036 56.5282 66.5036 57.8282 66.0036C61.3282 64.6036 63.8282 61.4036 64.4282 57.7036C64.8282 55.9036 64.6282 54.2036 63.9282 52.3036ZM41.1282 54.9036C38.4282 51.5036 36.6282 48.3036 36.0282 45.6036C35.7282 44.4036 35.7282 43.4036 35.8282 42.5036C35.9282 41.7036 36.2282 41.0036 36.6282 40.4036C37.6282 39.0036 39.2282 38.2036 41.1282 38.2036C43.0282 38.2036 44.6282 39.0036 45.6282 40.4036C46.0282 41.0036 46.3282 41.7036 46.4282 42.5036C46.6282 43.4036 46.5282 44.5036 46.2282 45.6036C45.6282 48.3036 43.8282 51.5036 41.1282 54.9036ZM61.3282 57.3036C60.9282 59.9036 59.2282 62.2036 56.7282 63.2036C55.5282 63.7036 54.2282 63.9036 52.9282 63.7036C51.6282 63.6036 50.4282 63.2036 49.1282 62.4036C47.3282 61.4036 45.5282 59.8036 43.3282 57.5036C46.6282 53.4036 48.7282 49.7036 49.4282 46.4036C49.8282 44.8036 49.8282 43.4036 49.7282 42.1036C49.5282 40.8036 49.0282 39.7036 48.3282 38.7036C46.7282 36.4036 44.1282 35.1036 41.2282 35.1036C38.3282 35.1036 35.6282 36.5036 34.1282 38.7036C33.4282 39.7036 32.9282 40.9036 32.7282 42.1036C32.5282 43.4036 32.5282 44.9036 33.0282 46.4036C33.8282 49.7036 35.8282 53.5036 39.1282 57.5036C37.0282 59.8036 35.2282 61.4036 33.3282 62.4036C32.0282 63.2036 30.7282 63.6036 29.5282 63.7036C28.1282 63.8036 26.8282 63.6036 25.7282 63.2036C23.2282 62.2036 21.4282 59.9036 21.1282 57.3036C20.9282 56.0036 21.0282 54.8036 21.6282 53.4036C21.8282 52.9036 22.0282 52.4036 22.3282 51.8036C22.7282 51.0036 23.1282 50.1036 23.5282 49.3036L23.6282 49.2036C26.7282 41.8036 30.5282 34.2036 34.4282 26.8036L34.6282 26.5036C35.0282 25.7036 35.4282 24.9036 35.8282 24.2036C36.2282 23.4036 36.7282 22.6036 37.2282 22.0036C38.3282 20.8036 39.7282 20.1036 41.3282 20.1036C42.9282 20.1036 44.3282 20.8036 45.4282 22.0036C46.0282 22.6036 46.4282 23.4036 46.8282 24.2036C47.2282 25.0036 47.6282 25.8036 48.0282 26.5036L48.2282 26.8036C51.9282 34.2036 55.6282 41.8036 59.1282 49.3036C59.5282 50.1036 59.9282 51.0036 60.3282 51.8036C60.6282 52.4036 60.8282 52.9036 61.0282 53.4036C61.4282 54.7036 61.5282 56.0036 61.3282 57.3036Z" fill="black"/>
</svg>
