<svg width="86" height="81" viewBox="0 0 86 81" fill="none" xmlns="http://www.w3.org/2000/svg">
<path d="M40.8045 10.8158C22.2067 10.8158 14.1076 27.4146 14.1076 27.4146L16.5073 29.1145C16.5073 29.1145 13.5077 34.814 13.6077 42.0135C13.6077 56.8124 25.4063 70.8114 42.8042 70.8114C58.6024 70.8114 71.6009 57.9123 71.6009 42.0135C71.6009 21.315 55.5028 10.8158 40.8045 10.8158ZM41.0044 15.8154C55.6027 15.8154 66.8014 27.5146 66.8014 41.2136C66.8014 55.7125 55.9027 65.7118 43.3042 65.7118C34.0053 65.7118 25.6063 58.6123 25.6063 48.913C25.6063 43.3134 28.6059 39.4137 31.9055 37.3139L32.4055 37.8138C31.5056 38.5138 28.9059 42.7135 28.9059 46.8132C28.9059 54.5126 34.9052 59.8122 42.5043 59.8122C52.1031 59.8122 58.6024 51.6128 58.6024 42.0135C58.6024 30.9143 48.8035 21.515 37.0049 21.515C30.5057 21.515 24.9064 24.3148 21.8067 26.8146L21.3068 26.4146C25.3063 19.9151 32.5054 15.8154 41.0044 15.8154ZM36.605 26.5146C44.1041 26.5146 51.5032 31.5143 53.303 38.6138L52.6031 38.9137C49.3035 34.514 43.9041 30.9143 37.5049 30.9143C25.8062 30.9143 19.607 41.6135 20.5069 50.5129L19.807 50.8129C19.807 50.8129 18.5071 47.9131 18.5071 44.6134C18.6071 34.6141 26.7061 26.5146 36.605 26.5146ZM41.6044 38.8138C45.204 38.8138 48.0036 41.7136 48.0036 45.1133C48.0036 47.9131 46.2038 49.613 46.2038 49.613L48.4036 51.1129C48.4036 51.1129 46.3038 54.5126 41.9044 54.5126C37.7049 54.5126 34.0053 51.1129 34.0053 46.6132C34.0053 41.9136 38.0048 38.8138 41.6044 38.8138Z" fill="black"/>
</svg>
