<svg width="86" height="81" viewBox="0 0 86 81" fill="none" xmlns="http://www.w3.org/2000/svg">
<path d="M41.9733 52.1028C42.0733 52.5027 42.1733 52.7027 42.4733 53.1027C41.3734 53.7027 40.2735 54.5026 39.2737 55.2026C39.0737 54.5026 39.3736 53.7027 39.6736 53.0027C39.6736 52.9027 39.7736 52.8027 39.7736 52.6027C39.8736 52.6027 40.1735 52.6027 40.1735 52.6027C40.3735 52.6027 40.6735 52.5027 40.6735 52.2028V52.1028C40.6735 51.7028 40.8735 50.4029 41.0734 49.9029C41.2734 50.4029 41.5734 51.0029 41.6734 51.3028C41.6734 51.6028 41.7734 51.9028 41.9733 52.1028ZM31.9745 40.0037C32.8744 41.1036 33.6743 42.4035 34.3742 43.6034C34.3742 43.5034 34.4742 43.5034 34.4742 43.4034C34.5742 43.4034 34.5742 43.4034 34.5742 43.5034C34.5742 43.6034 34.6742 43.7034 34.6742 43.7034C34.7742 43.8034 34.7742 43.9034 34.8742 43.9034C34.9742 43.9034 35.0741 44.0034 35.2741 44.0034L35.6741 44.1034C35.874 44.1034 36.074 44.2034 36.274 44.5033C36.374 44.6033 36.374 44.7033 36.474 44.9033C36.574 45.0033 36.674 45.1033 36.8739 45.1033C37.4739 45.5033 38.2738 45.6032 38.9737 45.6032C39.3736 45.0033 39.9736 44.6033 40.6735 44.6033C41.1734 44.6033 41.6734 44.8033 42.0733 45.2033C43.1732 45.0033 44.1731 44.3033 44.973 43.6034C45.073 43.5034 45.173 43.4034 45.4729 43.1034L45.073 42.6035C44.873 42.6035 44.673 42.6035 44.473 42.6035C44.2731 42.6035 44.0731 42.6035 43.8731 42.5035C43.7731 42.4035 43.6731 42.3035 43.4732 42.1035C43.4732 42.0035 43.4732 41.9035 43.4732 41.9035C43.4732 41.8035 43.3732 41.8035 43.2732 41.7035C43.2732 41.7035 43.2732 41.6035 43.2732 41.5035L43.3732 41.4036C43.2732 41.4036 43.2732 41.3036 43.2732 41.2036C43.2732 41.1036 43.3732 41.1036 43.3732 41.0036L43.2732 40.9036C43.1732 40.8036 43.0732 40.8036 43.0732 40.7036C43.0732 40.5036 43.4732 40.3036 43.5731 40.1036C43.6731 40.0037 43.6731 39.9037 43.6731 39.7037C43.6731 39.5037 43.5731 39.3037 43.5731 39.2037C43.5731 39.1037 43.5731 39.0037 43.5731 39.0037C43.4732 39.1037 43.3732 39.2037 43.0732 39.2037C43.2732 39.0037 43.2732 38.7038 43.2732 38.5038C43.2732 38.3038 43.3732 38.0038 43.6731 37.8038C43.4732 37.7038 43.1732 38.0038 43.1732 37.9038C43.1732 37.4038 43.5731 37.0039 44.0731 37.0039H44.1731C43.9731 36.9039 43.7731 36.6039 43.7731 36.3039C43.8731 36.4039 43.9731 36.5039 44.1731 36.5039C44.2731 36.5039 44.573 36.6039 44.673 36.6039C44.773 36.6039 45.073 36.6039 45.173 36.6039C45.3729 36.6039 45.6729 36.5039 45.8729 36.5039C46.5728 36.3039 47.3727 36.4039 47.9726 36.7039C47.8726 36.6039 47.8726 36.5039 47.8726 36.2039C47.8726 36.3039 47.9726 36.4039 48.0726 36.6039C48.2726 36.8039 48.6725 37.1039 48.9725 37.2039C49.1725 37.4038 49.3725 37.7038 49.4725 37.9038C49.6724 37.9038 50.0724 38.0038 50.0724 38.3038C49.6724 38.1038 49.6724 38.8037 49.6724 38.9037C49.6724 39.3037 49.6724 39.5037 49.5724 39.9037C49.3725 40.6036 48.9725 41.3036 48.1726 41.6035C48.0726 41.7035 47.9726 41.7035 47.7727 42.0035V42.1035C47.8726 42.1035 47.8726 42.0035 47.9726 42.0035C48.0726 42.0035 48.5726 41.9035 48.5726 42.1035C48.5726 42.2035 48.6725 42.5035 48.6725 42.6035C48.6725 42.6035 48.7725 42.7035 48.8725 43.0034C48.9725 43.1034 48.9725 43.1034 49.0725 43.2034C49.2725 43.4034 49.4725 43.7034 49.5724 43.9034C49.7724 44.3033 49.9724 44.6033 50.0724 45.1033C50.1724 45.7032 50.2724 46.2032 50.4723 46.8032C50.4723 47.3031 50.5723 47.7031 50.5723 48.2031C50.5723 48.403 50.5723 48.603 50.5723 48.803C51.6722 47.6031 52.5721 46.2032 53.272 44.7033C54.6718 42.0035 55.2718 39.0037 55.2718 35.804C55.3718 24.1048 46.3728 13.7056 32.1745 16.2054C29.5748 16.7054 27.0751 17.6053 24.7754 18.9052C22.2757 20.3051 20.2759 22.3049 18.6761 24.5048C17.7762 25.7047 17.1762 27.0046 16.4763 28.2045C19.076 29.4044 21.4757 30.8043 23.8755 32.6042C27.475 35.004 29.8748 37.4038 31.9745 40.0037ZM36.174 46.6032H35.974C36.074 46.8032 36.174 47.1031 36.374 47.3031C36.374 47.2031 36.374 47.2031 36.474 47.2031C36.674 47.1031 36.9739 47.2031 37.0739 47.3031C37.5738 47.7031 38.0738 47.8031 38.6737 47.7031C38.6737 47.5031 38.7737 47.2031 38.7737 47.1031C38.5737 47.0031 38.2738 47.0031 38.0738 46.9032C37.8738 46.8032 37.4739 46.7032 37.1739 46.7032C36.674 46.6032 36.474 46.6032 36.174 46.6032ZM42.5733 69.0015C58.0714 69.0015 70.67 56.4025 70.67 40.9036C70.67 25.4047 58.0714 12.7056 42.5733 12.6057C36.674 12.6057 30.8746 14.5055 26.0752 18.0053C26.0752 18.0053 26.0752 18.0053 26.1752 18.0053C27.575 17.1053 28.8749 16.5054 30.2747 15.9054C30.6747 15.8054 31.1746 15.5054 31.4746 15.4054C35.6741 13.9056 40.3735 13.4056 44.873 14.3055C46.5728 14.5055 48.3726 15.0055 49.9724 15.8054C54.6718 17.8053 58.9713 21.305 61.471 25.8047C64.1707 30.8043 65.0706 36.9039 63.5708 42.4035C62.6709 45.6032 61.0711 48.603 58.8713 51.1028C56.6716 53.7027 53.7719 55.8025 50.6723 57.3024C47.6727 58.8023 44.1731 59.7022 40.5735 59.7022C40.4735 59.9022 40.3735 60.3022 40.3735 60.7022C40.3735 60.8021 40.3735 60.8021 40.2735 60.9021C40.1735 61.1021 39.8736 61.1021 39.6736 61.1021C39.5736 61.1021 39.4736 61.1021 39.2737 61.1021C39.0737 61.3021 38.7737 61.7021 38.6737 62.102C38.4737 62.702 38.2738 63.002 38.4737 63.5019C38.5737 63.6019 38.5737 63.9019 38.5737 64.0019C38.5737 64.1019 38.4737 64.4019 38.3738 64.5019C38.2738 64.6019 37.9738 64.6019 37.8738 64.6019C37.4739 64.6019 37.1739 64.6019 36.7739 64.8019C36.374 65.0018 35.874 65.2018 35.5741 65.4018C35.1741 65.5018 34.6742 65.5018 34.1742 65.4018C34.0743 65.4018 34.0743 65.3018 33.9743 65.3018C33.8743 65.3018 33.8743 65.3018 33.7743 65.3018C33.5743 65.3018 33.3743 65.2018 33.2744 64.9018C33.2744 64.8018 33.2744 64.7019 33.2744 64.5019C33.3743 64.4019 33.3743 64.4019 33.4743 64.4019C33.5743 64.4019 33.5743 64.4019 33.6743 64.4019C33.7743 64.4019 33.8743 64.4019 34.1742 64.3019C34.4742 64.2019 34.6742 64.1019 34.8742 63.8019C35.0741 63.6019 35.3741 63.402 35.5741 63.202C35.7741 63.002 35.974 62.802 36.074 62.802C36.474 62.402 36.7739 62.102 36.9739 61.6021C37.0739 61.2021 37.1739 60.9021 37.3739 60.5022H37.0739C36.9739 60.4022 36.674 60.3022 36.674 60.0022C36.674 59.9022 36.7739 59.8022 36.7739 59.5022C31.0746 58.8023 27.575 56.1025 27.675 56.1025C29.5748 56.6024 31.5746 56.7024 33.5743 56.7024L33.4743 56.6024C33.4743 56.5025 33.4743 56.5025 33.4743 56.4025C33.4743 56.3025 33.4743 56.3025 33.5743 56.2025H33.6743C33.7743 56.2025 34.0743 56.2025 34.1742 56.2025C34.2742 56.2025 34.3742 56.2025 34.5742 56.2025H34.7742L35.4741 56.1025C35.5741 56.1025 35.6741 56.0025 35.6741 56.0025C35.874 55.9025 36.174 55.8025 36.274 55.5025C36.674 55.3025 36.8739 54.9026 37.1739 54.5026V54.4026C37.3739 53.9026 37.5738 53.3027 37.6738 52.8027L37.7738 52.4028C37.5739 52.3028 37.2739 52.0028 37.3739 51.8028C37.4739 51.6028 37.4739 51.6028 37.4739 51.4028C37.5739 51.2028 37.5738 50.8029 37.6738 50.5029L37.8738 49.503C37.7738 49.503 37.6738 49.503 37.4739 49.603C37.2739 49.7029 36.8739 50.0029 36.574 50.1029C36.674 50.3029 36.674 50.6029 36.7739 50.8029C36.7739 50.9029 36.7739 51.0029 36.7739 51.0029C36.7739 51.1028 36.674 51.1028 36.574 51.2028H36.474C36.374 51.2028 36.074 51.1028 36.074 51.0029C35.974 50.6029 35.974 50.4029 35.874 50.0029L36.074 49.9029C35.874 49.9029 35.6741 49.8029 35.5741 49.503C35.3741 49.403 35.1741 49.303 35.1741 49.003C35.0741 49.003 35.0741 48.903 34.9742 48.803C34.8742 48.603 35.0741 48.3031 35.3741 48.2031H35.4741C35.3741 47.8031 35.2741 47.5031 34.9742 47.1031C34.5742 47.0031 34.5742 46.9032 34.5742 46.9032C34.3742 46.5032 34.3742 46.2032 34.3742 46.2032C33.9743 46.2032 33.9743 45.7032 33.9743 45.7032C33.8743 45.7032 33.7743 45.5033 33.7743 45.3033C33.7743 45.1033 33.8743 45.2033 33.9743 45.1033C34.0743 45.1033 34.0743 45.0033 34.1742 45.0033C33.4743 43.5034 32.4744 42.1035 31.4746 40.8036C29.3748 38.2038 26.9751 35.804 24.3754 33.8041C22.1757 32.1042 19.7759 30.7043 17.1762 29.4044C15.5764 33.0042 14.6765 36.8039 14.6765 40.8036C14.6765 40.9036 14.6765 41.0036 14.6765 41.0036C14.4766 56.4025 27.0751 69.0015 42.5733 69.0015ZM45.6729 47.4031C45.173 47.6031 44.673 47.8031 44.0731 47.9031C44.573 48.603 45.173 49.403 45.7729 50.1029L46.1728 50.5029C46.1728 50.1029 46.2728 49.8029 46.2728 49.503C46.2728 48.703 46.1728 48.0031 45.6729 47.4031Z" fill="black"/>
</svg>
